<svg width="25" height="29" viewBox="0 0 25 29" fill="none" xmlns="http://www.w3.org/2000/svg">
<path fill-rule="evenodd" clip-rule="evenodd" d="M9.72222 0C9.9064 0 10.083 0.0763839 10.2133 0.212348C10.3435 0.348312 10.4167 0.532718 10.4167 0.725V6.77368C10.4167 7.2498 10.3268 7.72126 10.1522 8.16113C9.97769 8.601 9.72184 9.00065 9.39931 9.33728L9.05 9.70267C8.78316 9.98103 8.61993 10.3495 8.58954 10.742C8.55915 11.1345 8.66358 11.5256 8.88413 11.845C9.10469 12.1645 9.42697 12.3916 9.79328 12.4857C10.1596 12.5797 10.546 12.5346 10.8833 12.3583L11.0514 12.2706C11.501 12.0357 11.9969 11.9134 12.4997 11.9134C13.0024 11.9134 13.4983 12.0357 13.9479 12.2706L14.1167 12.3576C14.4539 12.5334 14.84 12.5782 15.206 12.4841C15.572 12.3899 15.8939 12.163 16.1144 11.8438C16.3348 11.5246 16.4393 11.1339 16.4092 10.7417C16.3791 10.3494 16.2163 9.98116 15.95 9.70267L15.6007 9.33728C15.2782 9.00065 15.0223 8.601 14.8477 8.16113C14.6732 7.72126 14.5833 7.2498 14.5833 6.77368V0.725C14.5833 0.532718 14.6565 0.348312 14.7867 0.212348C14.917 0.0763839 15.0936 0 15.2778 0C15.462 0 15.6386 0.0763839 15.7688 0.212348C15.8991 0.348312 15.9722 0.532718 15.9722 0.725V1.9604C21.1868 3.53075 25 8.55065 25 14.5C25 20.4494 21.1868 25.4693 15.9722 27.0403V28.275C15.9722 28.4673 15.8991 28.6517 15.7688 28.7877C15.6386 28.9236 15.462 29 15.2778 29C15.0936 29 14.917 28.9236 14.7867 28.7877C14.6565 28.6517 14.5833 28.4673 14.5833 28.275V22.2263C14.5833 21.7502 14.6732 21.2787 14.8477 20.8389C15.0223 20.399 15.2782 19.9993 15.6007 19.6627L15.95 19.2973C16.2168 19.019 16.3801 18.6505 16.4105 18.258C16.4409 17.8655 16.3364 17.4744 16.1159 17.155C15.8953 16.8355 15.573 16.6084 15.2067 16.5143C14.8404 16.4203 14.454 16.4654 14.1167 16.6417L13.9486 16.7294C13.499 16.9643 13.0031 17.0866 12.5003 17.0866C11.9976 17.0866 11.5017 16.9643 11.0521 16.7294L10.8833 16.6424C10.5461 16.4666 10.16 16.4218 9.79401 16.5159C9.42804 16.6101 9.10606 16.837 8.88564 17.1562C8.66522 17.4754 8.56073 17.8661 8.59084 18.2583C8.62095 18.6506 8.7837 19.0188 9.05 19.2973L9.39931 19.6627C9.72184 19.9993 9.97769 20.399 10.1522 20.8389C10.3268 21.2787 10.4167 21.7502 10.4167 22.2263V28.275C10.4167 28.4673 10.3435 28.6517 10.2133 28.7877C10.083 28.9236 9.9064 29 9.72222 29C9.53804 29 9.36141 28.9236 9.23118 28.7877C9.10094 28.6517 9.02778 28.4673 9.02778 28.275V27.0403C3.81319 25.4693 0 20.4501 0 14.5C0 8.55065 3.81319 3.53075 9.02778 1.9604V0.725C9.02778 0.532718 9.10094 0.348312 9.23118 0.212348C9.36141 0.0763839 9.53804 0 9.72222 0ZM9.02778 3.47783C4.59167 5.00033 1.38889 9.35975 1.38889 14.5C1.38889 19.6403 4.59167 24.0004 9.02778 25.5222V22.2263C9.02766 21.6495 8.80809 21.0964 8.41736 20.6886L8.06736 20.3232C7.5675 19.8012 7.26186 19.1105 7.20513 18.3748C7.14839 17.639 7.34426 16.9062 7.75769 16.3074C8.17113 15.7086 8.77514 15.283 9.46168 15.1066C10.1482 14.9302 10.8725 15.0146 11.5049 15.3446L11.6729 15.4324C12.1937 15.7042 12.8062 15.7042 13.3271 15.4324L13.4951 15.3454C14.1274 15.0158 14.8514 14.9317 15.5376 15.1082C16.2238 15.2847 16.8275 15.7102 17.2408 16.3087C17.6541 16.9072 17.85 17.6396 17.7936 18.3751C17.7371 19.1105 17.432 19.8011 16.9326 20.3232L16.5826 20.6886C16.1921 21.0962 15.9725 21.6491 15.9722 22.2256V25.5222C20.4083 23.9997 23.6111 19.6403 23.6111 14.5C23.6111 9.35975 20.4083 4.9996 15.9722 3.47783V6.77368C15.9723 7.35047 16.1919 7.9036 16.5826 8.3114L16.9326 8.6768C17.4325 9.19882 17.7381 9.88949 17.7949 10.6252C17.8516 11.361 17.6557 12.0938 17.2423 12.6926C16.8289 13.2914 16.2249 13.717 15.5383 13.8934C14.8518 14.0698 14.1275 13.9854 13.4951 13.6554L13.3271 13.5677C13.0703 13.4334 12.7871 13.3635 12.5 13.3635C12.2129 13.3635 11.9297 13.4334 11.6729 13.5677L11.5049 13.6546C10.8726 13.9842 10.1486 14.0683 9.46241 13.8918C8.77621 13.7153 8.17249 13.2898 7.7592 12.6913C7.3459 12.0928 7.14997 11.3604 7.20643 10.6249C7.26288 9.88946 7.56804 9.19894 8.06736 8.6768L8.41736 8.3114C8.80792 7.90378 9.02748 7.35095 9.02778 6.7744V3.47783Z" fill="#09A7A3"/>
</svg>
