<svg width="36" height="36" viewBox="0 0 36 36" fill="none" xmlns="http://www.w3.org/2000/svg">
<rect width="35.9688" height="35.9688" rx="17.9844" fill="#09A7A3" fill-opacity="0.25"/>
<path d="M15.9688 23L24.9688 14L23.5625 12.5469L15.9688 20.1406L12.4062 16.5781L11 17.9844L15.9688 23ZM10.9297 10.9297C12.8828 8.97656 15.2344 8 17.9844 8C20.7344 8 23.0859 8.97656 25.0391 10.9297C26.9922 12.8828 27.9688 15.2344 27.9688 17.9844C27.9688 20.7344 26.9922 23.0859 25.0391 25.0391C23.0859 26.9922 20.7344 27.9688 17.9844 27.9688C15.2344 27.9688 12.8828 26.9922 10.9297 25.0391C8.97656 23.0859 8 20.7344 8 17.9844C8 15.2344 8.97656 12.8828 10.9297 10.9297Z" fill="#09A7A3"/>
</svg>
