<svg width="20" height="20" viewBox="0 0 20 20" fill="none" xmlns="http://www.w3.org/2000/svg">
<path fill-rule="evenodd" clip-rule="evenodd" d="M10.315 0C12.745 0 13.099 0.013 14.123 0.06C15.187 0.109 15.914 0.278 16.55 0.525C17.2175 0.775874 17.8222 1.16936 18.322 1.678C18.8306 2.17777 19.2241 2.7825 19.475 3.45C19.722 4.086 19.891 4.813 19.94 5.877C19.988 6.944 20 7.284 20 10V10.08C20 12.723 19.988 13.067 19.94 14.123C19.891 15.187 19.722 15.914 19.475 16.55C19.2241 17.2175 18.8306 17.8222 18.322 18.322C17.8222 18.8306 17.2175 19.2241 16.55 19.475C15.914 19.722 15.187 19.891 14.123 19.94C13.056 19.988 12.716 20 10 20H9.92C7.277 20 6.933 19.988 5.877 19.94C4.813 19.891 4.086 19.722 3.45 19.475C2.7825 19.2241 2.17777 18.8306 1.678 18.322C1.16936 17.8222 0.775874 17.2175 0.525 16.55C0.278 15.914 0.109 15.187 0.06 14.123C0.013 13.099 0 12.744 0 10.315V9.685C0 7.255 0.013 6.901 0.06 5.877C0.109 4.813 0.278 4.086 0.525 3.45C0.775874 2.7825 1.16936 2.17777 1.678 1.678C2.18298 1.16716 2.79406 0.773544 3.468 0.525C4.104 0.278 4.831 0.109 5.895 0.06C6.901 0.013 7.256 0 9.685 0H10.315ZM10.234 1.802H9.766C7.31 1.802 6.982 1.813 5.959 1.86C4.984 1.905 4.455 2.067 4.102 2.204C3.635 2.386 3.302 2.602 2.952 2.952C2.602 3.302 2.386 3.635 2.204 4.102C2.067 4.455 1.904 4.984 1.86 5.959C1.813 6.982 1.802 7.31 1.802 9.766V10.234C1.802 12.69 1.813 13.018 1.86 14.041C1.905 15.016 2.067 15.545 2.204 15.898C2.386 16.364 2.603 16.698 2.952 17.048C3.302 17.398 3.635 17.614 4.102 17.796C4.455 17.933 4.984 18.096 5.959 18.14C7.013 18.188 7.329 18.198 10 18.198H10.08C12.677 18.198 12.997 18.188 14.04 18.14C15.016 18.095 15.545 17.933 15.898 17.796C16.364 17.614 16.698 17.398 17.048 17.048C17.398 16.698 17.614 16.365 17.796 15.898C17.933 15.545 18.096 15.016 18.14 14.041C18.188 12.986 18.198 12.671 18.198 10V9.92C18.198 7.323 18.188 7.003 18.14 5.96C18.095 4.984 17.933 4.455 17.796 4.102C17.6358 3.66757 17.3802 3.2746 17.048 2.952C16.7254 2.61986 16.3324 2.36426 15.898 2.204C15.545 2.067 15.016 1.904 14.041 1.86C13.018 1.813 12.69 1.802 10.234 1.802ZM10 4.865C12.8341 4.865 15.135 7.16592 15.135 10C15.135 12.8341 12.8341 15.135 10 15.135C7.16592 15.135 4.865 12.8341 4.865 10C4.865 7.16592 7.16592 4.865 10 4.865ZM10 6.667C8.16047 6.667 6.667 8.16047 6.667 10C6.667 11.8395 8.16047 13.333 10 13.333C11.8395 13.333 13.333 11.8395 13.333 10C13.333 8.16047 11.8395 6.667 10 6.667ZM15.338 3.462C16.0003 3.462 16.538 3.9997 16.538 4.662C16.538 5.3243 16.0003 5.862 15.338 5.862C14.6757 5.862 14.138 5.3243 14.138 4.662C14.138 3.9997 14.6757 3.462 15.338 3.462Z" fill="#244568"/>
</svg>
