<svg width="200" height="201" viewBox="0 0 200 201" fill="none" xmlns="http://www.w3.org/2000/svg">
<path d="M200 100.5C200 156.005 155.228 201 100 201C44.7715 201 0 156.005 0 100.5C0 44.9954 44.7715 0 100 0C155.228 0 200 44.9954 200 100.5Z" fill="white"/>
<path d="M177 68H141V72C152.2 72 155.667 77.3333 156 80V131L106 68H82V73C89.2 73 92.3333 76.4654 93 78.1982V146C93 146 90.0001 153 82 153V157H116V153C109.2 153 103.833 148.333 102 146V90L154 156H164V80C164 74.4 172.667 72.3333 177 72V68Z" fill="#0BD4CE"/>
<path d="M63.047 123.957C63.0902 129.456 58.4312 133.95 52.6409 133.996C46.8505 134.041 42.1214 129.62 42.0782 124.122C42.035 118.623 46.694 114.128 52.4844 114.082C58.2747 114.037 63.0038 118.458 63.047 123.957Z" fill="#D9D9D9"/>
<path d="M73 59C73 64.5228 68.5228 69 63 69C57.4772 69 53 64.5228 53 59C53 53.4772 57.4772 49 63 49C68.5228 49 73 53.4772 73 59Z" fill="#0BD4CE"/>
<path d="M73.2027 88.9444C73.2545 95.5411 67.8996 100.931 61.2421 100.984C54.5847 101.036 49.1457 95.7306 49.0939 89.1339C49.042 82.5371 54.3969 77.147 61.0544 77.0947C67.7119 77.0424 73.1508 82.3477 73.2027 88.9444Z" fill="#0BD4CE"/>
<path d="M63.047 123.957C63.0902 129.456 58.4312 133.95 52.6409 133.996C46.8505 134.041 42.1214 129.62 42.0782 124.122C42.035 118.623 46.694 114.128 52.4844 114.082C58.2747 114.037 63.0038 118.458 63.047 123.957Z" fill="#0BD4CE"/>
<path d="M61.8977 154.575C61.9262 158.206 58.8498 161.174 55.0263 161.204C51.2029 161.234 48.0802 158.314 48.0517 154.683C48.0231 151.052 51.0995 148.084 54.923 148.054C58.7465 148.024 61.8691 150.944 61.8977 154.575Z" fill="#0BD4CE"/>
<path d="M68 30.5C68 34.0899 65.0899 37 61.5 37C57.9101 37 55 34.0899 55 30.5C55 26.9101 57.9101 24 61.5 24C65.0899 24 68 26.9101 68 30.5Z" fill="#0BD4CE"/>
<path d="M130 141H135C133.167 150.167 129.5 168.7 129.5 169.5L57 170C57.6218 171.865 59.1716 175.732 60.6757 177.217C60.7839 177.313 60.8921 177.408 61 177.5C60.8924 177.419 60.7841 177.325 60.6757 177.217C50.2506 167.987 38.3123 143.315 39.5 125.5C39.6667 119.833 41.3 104.4 46.5 88C53 67.5 58 35.5 56 27.5C59.5 39.3333 64.6 70.8 57 102C49.4 133.2 52.8333 154.333 55.5 161H115C119.5 158.833 128.8 151.8 130 141Z" fill="#08A7A3"/>
<path d="M130 141H135C133.167 150.167 129.5 168.7 129.5 169.5L57 170C57.6218 171.865 59.1716 175.732 60.6757 177.217C60.7839 177.313 60.8921 177.408 61 177.5C60.8924 177.419 60.7841 177.325 60.6757 177.217C50.2506 167.987 38.3123 143.315 39.5 125.5C39.6667 119.833 41.3 104.4 46.5 88C53 67.5 58 35.5 56 27.5C59.5 39.3333 64.6 70.8 57 102C49.4 133.2 52.8333 154.333 55.5 161H115C119.5 158.833 128.8 151.8 130 141Z" fill="#08A7A3"/>
<path d="M73 59C73 64.5228 68.5228 69 63 69C57.4772 69 53 64.5228 53 59C53 53.4772 57.4772 49 63 49C68.5228 49 73 53.4772 73 59Z" fill="#347C88"/>
<path d="M73.2027 88.9444C73.2545 95.5411 67.8996 100.931 61.2421 100.984C54.5847 101.036 49.1457 95.7306 49.0939 89.1339C49.042 82.5371 54.3969 77.147 61.0544 77.0947C67.7119 77.0424 73.1508 82.3477 73.2027 88.9444Z" fill="#347C88"/>
<path d="M63.047 123.957C63.0902 129.456 58.4312 133.95 52.6409 133.996C46.8505 134.041 42.1214 129.62 42.0782 124.122C42.035 118.623 46.694 114.128 52.4844 114.082C58.2747 114.037 63.0038 118.458 63.047 123.957Z" fill="#347C88"/>
<path d="M61.8977 154.575C61.9262 158.206 58.8498 161.174 55.0263 161.204C51.2029 161.234 48.0802 158.314 48.0517 154.683C48.0231 151.052 51.0995 148.084 54.923 148.054C58.7465 148.024 61.8691 150.944 61.8977 154.575Z" fill="#347C88"/>
<path d="M68 30.5C68 34.0899 65.0899 37 61.5 37C57.9101 37 55 34.0899 55 30.5C55 26.9101 57.9101 24 61.5 24C65.0899 24 68 26.9101 68 30.5Z" fill="#347C88"/>
<path d="M41.5 73C45.5 64.2 47.5 47.5 47 33.5C47 39.1 45 53 40 66.5C35 80 36.1 74.7 32.5 85.5C28 99 32.5012 112 32.5 112.5C32.5 92.1 38.5 77.6667 41.5 73Z" fill="#0BD4CE"/>
<path d="M66.5 172C67.5 138 76 119 76 118C73.8333 120.167 68.7 127.6 65.5 140C62.3 152.4 64.8333 166.5 66.5 172Z" fill="#0BD4CE"/>
</svg>
